<mxfile host="app.diagrams.net" modified="2023-04-05T13:40:59.383Z" agent="5.0 (Windows NT 10.0; Win64; x64) AppleWebKit/537.36 (KHTML, like Gecko) Chrome/111.0.0.0 Safari/537.36 Edg/111.0.1661.62" etag="Q0rCP3ov6kkwP6_aHvHV" version="20.8.23" type="github">
  <diagram name="Strona-1" id="Zb6Yt-BWExvPNNUcw9IA">
    <mxGraphModel dx="1617" dy="796" grid="1" gridSize="10" guides="1" tooltips="1" connect="1" arrows="1" fold="1" page="1" pageScale="1" pageWidth="827" pageHeight="1169" math="0" shadow="0">
      <root>
        <mxCell id="0" />
        <mxCell id="1" parent="0" />
        <mxCell id="MhEsZ3Wpsa6gqBNAloqw-2" value="START&lt;br&gt;" style="ellipse;whiteSpace=wrap;html=1;" vertex="1" parent="1">
          <mxGeometry x="210" y="190" width="120" height="80" as="geometry" />
        </mxCell>
        <mxCell id="MhEsZ3Wpsa6gqBNAloqw-3" value="" style="endArrow=classic;html=1;rounded=0;" edge="1" parent="1" source="MhEsZ3Wpsa6gqBNAloqw-2">
          <mxGeometry width="50" height="50" relative="1" as="geometry">
            <mxPoint x="270" y="310" as="sourcePoint" />
            <mxPoint x="270" y="330" as="targetPoint" />
          </mxGeometry>
        </mxCell>
        <mxCell id="MhEsZ3Wpsa6gqBNAloqw-4" value="pobierz a, b" style="rounded=0;whiteSpace=wrap;html=1;" vertex="1" parent="1">
          <mxGeometry x="210" y="330" width="120" height="60" as="geometry" />
        </mxCell>
        <mxCell id="MhEsZ3Wpsa6gqBNAloqw-5" value="" style="endArrow=classic;html=1;rounded=0;" edge="1" parent="1" source="MhEsZ3Wpsa6gqBNAloqw-4">
          <mxGeometry width="50" height="50" relative="1" as="geometry">
            <mxPoint x="250" y="430" as="sourcePoint" />
            <mxPoint x="270" y="450" as="targetPoint" />
          </mxGeometry>
        </mxCell>
        <mxCell id="MhEsZ3Wpsa6gqBNAloqw-6" value="a/b" style="rounded=0;whiteSpace=wrap;html=1;" vertex="1" parent="1">
          <mxGeometry x="210" y="450" width="120" height="60" as="geometry" />
        </mxCell>
        <mxCell id="MhEsZ3Wpsa6gqBNAloqw-7" value="stop" style="ellipse;whiteSpace=wrap;html=1;" vertex="1" parent="1">
          <mxGeometry x="210" y="585" width="120" height="80" as="geometry" />
        </mxCell>
        <mxCell id="MhEsZ3Wpsa6gqBNAloqw-8" value="" style="endArrow=classic;html=1;rounded=0;entryX=0.5;entryY=0;entryDx=0;entryDy=0;exitX=0.5;exitY=1;exitDx=0;exitDy=0;" edge="1" parent="1" source="MhEsZ3Wpsa6gqBNAloqw-6" target="MhEsZ3Wpsa6gqBNAloqw-7">
          <mxGeometry width="50" height="50" relative="1" as="geometry">
            <mxPoint x="260" y="560" as="sourcePoint" />
            <mxPoint x="310" y="510" as="targetPoint" />
          </mxGeometry>
        </mxCell>
      </root>
    </mxGraphModel>
  </diagram>
</mxfile>
